<svg xmlns="http://www.w3.org/2000/svg" viewBox="0 0 500 440" width="500" height="440">
  <rect width="500" height="440" rx="14" fill="#1a3330" /><rect width="500" height="440" rx="14" fill="none" stroke="#2a4a45" stroke-width="1" /><polygon points="250.0,180.0 276.0,195.0 276.0,225.0 250.0,240.0 224.0,225.0 224.0,195.0" fill="none" stroke="#2a4a45" stroke-width="1" /><polygon points="250.0,150.0 302.0,180.0 302.0,240.0 250.0,270.0 198.0,240.0 198.0,180.0" fill="none" stroke="#2a4a45" stroke-width="1" /><polygon points="250.0,120.0 327.9,165.0 327.9,255.0 250.0,300.0 172.1,255.0 172.1,165.0" fill="none" stroke="#2a4a45" stroke-width="1" /><polygon points="250.0,90.0 353.9,150.0 353.9,270.0 250.0,330.0 146.1,270.0 146.1,150.0" fill="none" stroke="#2a4a45" stroke-width="1" /><polygon points="250.0,60.0 379.9,135.0 379.9,285.0 250.0,360.0 120.1,285.0 120.1,135.0" fill="none" stroke="#2a4a45" stroke-width="1" /><line x1="250" y1="210" x2="250.0" y2="60.0" stroke="#2a4a45" stroke-width="1" /><line x1="250" y1="210" x2="379.9" y2="135.0" stroke="#2a4a45" stroke-width="1" /><line x1="250" y1="210" x2="379.9" y2="285.0" stroke="#2a4a45" stroke-width="1" /><line x1="250" y1="210" x2="250.0" y2="360.0" stroke="#2a4a45" stroke-width="1" /><line x1="250" y1="210" x2="120.1" y2="285.0" stroke="#2a4a45" stroke-width="1" /><line x1="250" y1="210" x2="120.1" y2="135.0" stroke="#2a4a45" stroke-width="1" /><polygon points="250.0,67.5 356.5,148.5 366.9,277.5 250.0,327.0 153.9,265.5 139.6,146.2" fill="#d1a654" fill-opacity="0.22" stroke="#d1a654" stroke-width="2" /><circle cx="250.0" cy="67.5" r="4" fill="#d1a654" /><circle cx="356.5" cy="148.5" r="4" fill="#d1a654" /><circle cx="366.9" cy="277.5" r="4" fill="#d1a654" /><circle cx="250.0" cy="327.0" r="4" fill="#d1a654" /><circle cx="153.9" cy="265.5" r="4" fill="#d1a654" /><circle cx="139.6" cy="146.2" r="4" fill="#d1a654" /><text x="250.0" y="32.0" font-family="'Segoe UI', sans-serif" font-size="12" font-weight="500" fill="#f8f2ea" text-anchor="middle" dominant-baseline="central">Structural Health</text><text x="250.0" y="48.0" font-family="'Segoe UI', sans-serif" font-size="12" font-weight="500" fill="#f8f2ea" text-anchor="middle" dominant-baseline="central">Monitoring</text><text x="404.2" y="121.0" font-family="'Segoe UI', sans-serif" font-size="12" font-weight="500" fill="#f8f2ea" text-anchor="start" dominant-baseline="central">Wind</text><text x="404.2" y="137.0" font-family="'Segoe UI', sans-serif" font-size="12" font-weight="500" fill="#f8f2ea" text-anchor="start" dominant-baseline="central">Engineering</text><text x="404.2" y="299.0" font-family="'Segoe UI', sans-serif" font-size="12" font-weight="500" fill="#f8f2ea" text-anchor="start" dominant-baseline="central">Automated</text><text x="404.2" y="315.0" font-family="'Segoe UI', sans-serif" font-size="12" font-weight="500" fill="#f8f2ea" text-anchor="start" dominant-baseline="central">NDT</text><text x="250.0" y="388.0" font-family="'Segoe UI', sans-serif" font-size="12" font-weight="500" fill="#f8f2ea" text-anchor="middle" dominant-baseline="central">LLM &amp; RAG</text><text x="250.0" y="404.0" font-family="'Segoe UI', sans-serif" font-size="12" font-weight="500" fill="#f8f2ea" text-anchor="middle" dominant-baseline="central">Systems</text><text x="95.8" y="299.0" font-family="'Segoe UI', sans-serif" font-size="12" font-weight="500" fill="#f8f2ea" text-anchor="end" dominant-baseline="central">Lightweight</text><text x="95.8" y="315.0" font-family="'Segoe UI', sans-serif" font-size="12" font-weight="500" fill="#f8f2ea" text-anchor="end" dominant-baseline="central">ML</text><text x="95.8" y="121.0" font-family="'Segoe UI', sans-serif" font-size="12" font-weight="500" fill="#f8f2ea" text-anchor="end" dominant-baseline="central">AI for</text><text x="95.8" y="137.0" font-family="'Segoe UI', sans-serif" font-size="12" font-weight="500" fill="#f8f2ea" text-anchor="end" dominant-baseline="central">Infrastructure</text>
</svg>